<mxfile host="app.diagrams.net" modified="2024-05-28T16:47:14.566Z" agent="Mozilla/5.0 (Windows NT 10.0; Win64; x64; rv:126.0) Gecko/20100101 Firefox/126.0" etag="dGY7lE_bATi6PE1zvz7-" version="24.4.9" type="device">
  <diagram name="Page-1" id="p2icq3qU4lQKFvCMWMy2">
    <mxGraphModel dx="1285" dy="801" grid="1" gridSize="10" guides="1" tooltips="1" connect="1" arrows="1" fold="1" page="1" pageScale="1" pageWidth="850" pageHeight="1100" math="0" shadow="0">
      <root>
        <mxCell id="0" />
        <mxCell id="1" parent="0" />
        <mxCell id="gWARGwKJzGfemJkTMFmE-6" value="" style="rounded=1;whiteSpace=wrap;html=1;fillColor=none;container=0;strokeWidth=2;" vertex="1" parent="1">
          <mxGeometry x="240.5" y="380" width="609.5" height="140" as="geometry" />
        </mxCell>
        <mxCell id="gWARGwKJzGfemJkTMFmE-18" value="&lt;b&gt;&lt;font style=&quot;font-size: 10px;&quot; face=&quot;Courier New&quot;&gt;&lt;br style=&quot;font-size: 10px;&quot;&gt;Decentralized order matching&lt;/font&gt;&lt;/b&gt;" style="swimlane;fontStyle=0;childLayout=stackLayout;horizontal=1;startSize=30;horizontalStack=0;resizeParent=1;resizeParentMax=0;resizeLast=0;collapsible=1;marginBottom=0;whiteSpace=wrap;html=1;fontSize=10;fillColor=none;strokeWidth=2;" vertex="1" parent="1">
          <mxGeometry x="256.15" y="390" width="190" height="120" as="geometry" />
        </mxCell>
        <mxCell id="gWARGwKJzGfemJkTMFmE-19" value="Order 1: ..." style="text;strokeColor=none;fillColor=none;align=left;verticalAlign=middle;spacingLeft=4;spacingRight=4;overflow=hidden;points=[[0,0.5],[1,0.5]];portConstraint=eastwest;rotatable=0;whiteSpace=wrap;html=1;fontSize=10;dashed=1;dashPattern=12 12;fontFamily=Courier New;strokeWidth=2;" vertex="1" parent="gWARGwKJzGfemJkTMFmE-18">
          <mxGeometry y="30" width="190" height="30" as="geometry" />
        </mxCell>
        <mxCell id="gWARGwKJzGfemJkTMFmE-20" value="Order 2: ..." style="text;strokeColor=default;fillColor=none;align=left;verticalAlign=middle;spacingLeft=4;spacingRight=4;overflow=hidden;points=[[0,0.5],[1,0.5]];portConstraint=eastwest;rotatable=0;whiteSpace=wrap;html=1;fontSize=10;dashed=1;opacity=50;fontFamily=Courier New;strokeWidth=2;" vertex="1" parent="gWARGwKJzGfemJkTMFmE-18">
          <mxGeometry y="60" width="190" height="30" as="geometry" />
        </mxCell>
        <mxCell id="gWARGwKJzGfemJkTMFmE-21" value="Order N: ..." style="text;strokeColor=none;fillColor=none;align=left;verticalAlign=middle;spacingLeft=4;spacingRight=4;overflow=hidden;points=[[0,0.5],[1,0.5]];portConstraint=eastwest;rotatable=0;whiteSpace=wrap;html=1;fontSize=10;dashed=1;dashPattern=12 12;fontFamily=Courier New;strokeWidth=2;" vertex="1" parent="gWARGwKJzGfemJkTMFmE-18">
          <mxGeometry y="90" width="190" height="30" as="geometry" />
        </mxCell>
        <mxCell id="gWARGwKJzGfemJkTMFmE-1" value="" style="rounded=1;whiteSpace=wrap;html=1;fillColor=none;container=0;strokeWidth=2;" vertex="1" parent="1">
          <mxGeometry x="240.5" y="240" width="609.5" height="140" as="geometry" />
        </mxCell>
        <mxCell id="gWARGwKJzGfemJkTMFmE-2" value="FHE Market" style="text;html=1;align=center;verticalAlign=middle;whiteSpace=wrap;rounded=0;fontFamily=Courier New;fontStyle=1;container=0;strokeWidth=2;" vertex="1" parent="1">
          <mxGeometry x="458.7668918918919" y="240" width="172.96621621621622" height="52.5" as="geometry" />
        </mxCell>
        <mxCell id="gWARGwKJzGfemJkTMFmE-3" value="&lt;font face=&quot;Courier New&quot;&gt;&lt;b&gt;App&lt;/b&gt;&lt;/font&gt;" style="rounded=1;whiteSpace=wrap;html=1;fillColor=none;container=0;strokeWidth=2;" vertex="1" parent="1">
          <mxGeometry x="299.99932432432433" y="292.5" width="65.89189189189189" height="70" as="geometry" />
        </mxCell>
        <mxCell id="gWARGwKJzGfemJkTMFmE-5" value="&lt;font face=&quot;Courier New&quot;&gt;&lt;b&gt;App&lt;/b&gt;&lt;/font&gt;" style="rounded=1;whiteSpace=wrap;html=1;fillColor=none;container=0;strokeWidth=2;" vertex="1" parent="1">
          <mxGeometry x="712.7014864864865" y="292.5" width="65.89189189189189" height="70" as="geometry" />
        </mxCell>
        <mxCell id="gWARGwKJzGfemJkTMFmE-7" value="Orchestration Layer" style="text;html=1;align=center;verticalAlign=middle;whiteSpace=wrap;rounded=0;fontFamily=Courier New;fontStyle=1;container=0;strokeWidth=2;" vertex="1" parent="1">
          <mxGeometry x="415.93716216216217" y="380" width="258.62567567567567" height="52.5" as="geometry" />
        </mxCell>
        <mxCell id="gWARGwKJzGfemJkTMFmE-8" value="" style="rounded=1;whiteSpace=wrap;html=1;fillColor=none;container=0;strokeWidth=2;" vertex="1" parent="1">
          <mxGeometry x="240.5" y="520" width="609.5" height="140" as="geometry" />
        </mxCell>
        <mxCell id="gWARGwKJzGfemJkTMFmE-9" value="Verification Layer" style="text;html=1;align=center;verticalAlign=middle;whiteSpace=wrap;rounded=0;fontFamily=Courier New;fontStyle=1;container=0;strokeWidth=2;" vertex="1" parent="1">
          <mxGeometry x="415.93716216216217" y="520" width="258.62567567567567" height="52.5" as="geometry" />
        </mxCell>
        <mxCell id="gWARGwKJzGfemJkTMFmE-11" value="" style="rounded=1;whiteSpace=wrap;html=1;fillColor=none;container=0;strokeWidth=2;" vertex="1" parent="1">
          <mxGeometry x="240.5" y="660" width="609.5" height="140" as="geometry" />
        </mxCell>
        <mxCell id="gWARGwKJzGfemJkTMFmE-12" value="Execution Layer" style="text;html=1;align=center;verticalAlign=middle;whiteSpace=wrap;rounded=0;fontFamily=Courier New;fontStyle=1;container=0;strokeWidth=2;" vertex="1" parent="1">
          <mxGeometry x="415.93716216216217" y="660" width="258.62567567567567" height="52.5" as="geometry" />
        </mxCell>
        <mxCell id="gWARGwKJzGfemJkTMFmE-26" value="&lt;font face=&quot;Courier New&quot;&gt;&lt;b&gt;App&lt;/b&gt;&lt;/font&gt;" style="rounded=1;whiteSpace=wrap;html=1;fillColor=none;container=0;strokeWidth=2;" vertex="1" parent="1">
          <mxGeometry x="412.93932432432433" y="292.5" width="65.89189189189189" height="70" as="geometry" />
        </mxCell>
        <mxCell id="gWARGwKJzGfemJkTMFmE-28" value="&lt;b&gt;Credit system&lt;br&gt;&lt;/b&gt;" style="swimlane;fontStyle=0;childLayout=stackLayout;horizontal=1;startSize=30;horizontalStack=0;resizeParent=1;resizeParentMax=0;resizeLast=0;collapsible=1;marginBottom=0;whiteSpace=wrap;html=1;fontSize=10;fillColor=none;strokeWidth=2;" vertex="1" parent="1">
          <mxGeometry x="642.7" y="390" width="190" height="120" as="geometry" />
        </mxCell>
        <mxCell id="gWARGwKJzGfemJkTMFmE-29" value="Actor 1: ..." style="text;strokeColor=none;fillColor=none;align=left;verticalAlign=middle;spacingLeft=4;spacingRight=4;overflow=hidden;points=[[0,0.5],[1,0.5]];portConstraint=eastwest;rotatable=0;whiteSpace=wrap;html=1;fontSize=10;dashed=1;dashPattern=12 12;fontFamily=Courier New;strokeWidth=2;" vertex="1" parent="gWARGwKJzGfemJkTMFmE-28">
          <mxGeometry y="30" width="190" height="30" as="geometry" />
        </mxCell>
        <mxCell id="gWARGwKJzGfemJkTMFmE-30" value="Actor 2: ..." style="text;strokeColor=default;fillColor=none;align=left;verticalAlign=middle;spacingLeft=4;spacingRight=4;overflow=hidden;points=[[0,0.5],[1,0.5]];portConstraint=eastwest;rotatable=0;whiteSpace=wrap;html=1;fontSize=10;dashed=1;opacity=50;fontFamily=Courier New;strokeWidth=2;" vertex="1" parent="gWARGwKJzGfemJkTMFmE-28">
          <mxGeometry y="60" width="190" height="30" as="geometry" />
        </mxCell>
        <mxCell id="gWARGwKJzGfemJkTMFmE-31" value="Actor N: ..." style="text;strokeColor=none;fillColor=none;align=left;verticalAlign=middle;spacingLeft=4;spacingRight=4;overflow=hidden;points=[[0,0.5],[1,0.5]];portConstraint=eastwest;rotatable=0;whiteSpace=wrap;html=1;fontSize=10;dashed=1;dashPattern=12 12;fontFamily=Courier New;strokeWidth=2;" vertex="1" parent="gWARGwKJzGfemJkTMFmE-28">
          <mxGeometry y="90" width="190" height="30" as="geometry" />
        </mxCell>
        <mxCell id="gWARGwKJzGfemJkTMFmE-32" value="&lt;font face=&quot;Courier New&quot;&gt;On-chain verification contract&lt;br&gt;&lt;/font&gt;" style="rounded=1;whiteSpace=wrap;html=1;fontStyle=1;fillColor=none;strokeWidth=2;" vertex="1" parent="1">
          <mxGeometry x="712.7" y="570" width="117.3" height="72.5" as="geometry" />
        </mxCell>
        <mxCell id="gWARGwKJzGfemJkTMFmE-33" value="&lt;font face=&quot;Courier New&quot;&gt;MPC protocol verification&lt;br&gt;&lt;/font&gt;" style="rounded=1;whiteSpace=wrap;html=1;fontStyle=1;fillColor=none;strokeWidth=2;" vertex="1" parent="1">
          <mxGeometry x="256.15000000000003" y="570" width="117.3" height="72.5" as="geometry" />
        </mxCell>
        <mxCell id="gWARGwKJzGfemJkTMFmE-34" value="&lt;font face=&quot;Courier New&quot;&gt;Actors verification&lt;br&gt;&lt;/font&gt;" style="rounded=1;whiteSpace=wrap;html=1;fontStyle=1;fillColor=none;strokeWidth=2;" vertex="1" parent="1">
          <mxGeometry x="400" y="570" width="117.3" height="72.5" as="geometry" />
        </mxCell>
        <mxCell id="gWARGwKJzGfemJkTMFmE-35" value="&lt;font face=&quot;Courier New&quot;&gt;Fair Math VM&lt;/font&gt;" style="rounded=1;whiteSpace=wrap;html=1;fontStyle=1;fillColor=none;strokeWidth=2;" vertex="1" parent="1">
          <mxGeometry x="256.15000000000003" y="712.5" width="117.3" height="72.5" as="geometry" />
        </mxCell>
        <mxCell id="gWARGwKJzGfemJkTMFmE-40" value="&lt;font face=&quot;Courier New&quot;&gt;Fair Math VM&lt;/font&gt;" style="rounded=1;whiteSpace=wrap;html=1;fontStyle=1;fillColor=none;strokeWidth=2;" vertex="1" parent="1">
          <mxGeometry x="400" y="712.5" width="117.3" height="72.5" as="geometry" />
        </mxCell>
        <mxCell id="gWARGwKJzGfemJkTMFmE-41" value="&lt;font face=&quot;Courier New&quot;&gt;Fair Math VM&lt;/font&gt;" style="rounded=1;whiteSpace=wrap;html=1;fontStyle=1;fillColor=none;strokeWidth=2;" vertex="1" parent="1">
          <mxGeometry x="712.7" y="712.5" width="117.3" height="72.5" as="geometry" />
        </mxCell>
        <mxCell id="gWARGwKJzGfemJkTMFmE-50" value="" style="endArrow=none;dashed=1;html=1;dashPattern=1 3;strokeWidth=2;rounded=0;exitX=-0.006;exitY=0.076;exitDx=0;exitDy=0;exitPerimeter=0;entryX=0.026;entryY=0.917;entryDx=0;entryDy=0;entryPerimeter=0;" edge="1" parent="1" source="gWARGwKJzGfemJkTMFmE-39" target="gWARGwKJzGfemJkTMFmE-35">
          <mxGeometry width="50" height="50" relative="1" as="geometry">
            <mxPoint x="210" y="830" as="sourcePoint" />
            <mxPoint x="260" y="780" as="targetPoint" />
          </mxGeometry>
        </mxCell>
        <mxCell id="gWARGwKJzGfemJkTMFmE-51" value="" style="endArrow=none;dashed=1;html=1;dashPattern=1 3;strokeWidth=2;rounded=0;entryX=1.013;entryY=0.888;entryDx=0;entryDy=0;entryPerimeter=0;exitX=0.99;exitY=0.053;exitDx=0;exitDy=0;exitPerimeter=0;" edge="1" parent="1" source="gWARGwKJzGfemJkTMFmE-39" target="gWARGwKJzGfemJkTMFmE-35">
          <mxGeometry width="50" height="50" relative="1" as="geometry">
            <mxPoint x="520" y="830" as="sourcePoint" />
            <mxPoint x="570" y="780" as="targetPoint" />
          </mxGeometry>
        </mxCell>
        <mxCell id="gWARGwKJzGfemJkTMFmE-55" value="" style="rounded=1;whiteSpace=wrap;html=1;fillColor=none;container=0;strokeWidth=2;" vertex="1" parent="1">
          <mxGeometry x="540" y="800" width="310.5" height="140" as="geometry" />
        </mxCell>
        <mxCell id="gWARGwKJzGfemJkTMFmE-57" value="" style="rounded=1;whiteSpace=wrap;html=1;fillColor=none;container=0;strokeWidth=2;" vertex="1" parent="1">
          <mxGeometry x="241" y="100" width="609.5" height="140" as="geometry" />
        </mxCell>
        <mxCell id="gWARGwKJzGfemJkTMFmE-58" value="L1 endpoint" style="text;html=1;align=center;verticalAlign=middle;whiteSpace=wrap;rounded=0;fontFamily=Courier New;fontStyle=1;container=0;strokeWidth=2;" vertex="1" parent="1">
          <mxGeometry x="459.2668918918919" y="100" width="172.96621621621622" height="52.5" as="geometry" />
        </mxCell>
        <mxCell id="gWARGwKJzGfemJkTMFmE-59" value="&lt;font face=&quot;Courier New&quot;&gt;&lt;b&gt;Endpoint contract&lt;/b&gt;&lt;br&gt;&lt;/font&gt;" style="rounded=1;whiteSpace=wrap;html=1;fillColor=none;container=0;strokeWidth=2;" vertex="1" parent="1">
          <mxGeometry x="256.15" y="152.5" width="133.85" height="70" as="geometry" />
        </mxCell>
        <mxCell id="gWARGwKJzGfemJkTMFmE-60" value="&lt;font face=&quot;Courier New&quot;&gt;Verification contract&lt;br&gt;&lt;/font&gt;" style="rounded=1;whiteSpace=wrap;html=1;fillColor=none;container=0;fontStyle=1;strokeWidth=2;" vertex="1" parent="1">
          <mxGeometry x="478.83" y="152.5" width="133.85" height="70" as="geometry" />
        </mxCell>
        <mxCell id="gWARGwKJzGfemJkTMFmE-61" value="&lt;font face=&quot;Courier New&quot;&gt;Key management&amp;nbsp; contract&lt;br&gt;&lt;/font&gt;" style="rounded=1;whiteSpace=wrap;html=1;fillColor=none;container=0;fontStyle=1;strokeWidth=2;" vertex="1" parent="1">
          <mxGeometry x="698.85" y="152.5" width="133.85" height="70" as="geometry" />
        </mxCell>
        <mxCell id="gWARGwKJzGfemJkTMFmE-62" value="&lt;span style=&quot;left: 221.149px; top: 553.992px; font-size: 11.2969px; transform: scaleX(1.11066);&quot; role=&quot;presentation&quot; dir=&quot;ltr&quot;&gt;Data Access Layer&lt;/span&gt;" style="text;html=1;align=center;verticalAlign=middle;whiteSpace=wrap;rounded=0;fontFamily=Courier New;fontStyle=1;container=0;strokeWidth=2;" vertex="1" parent="1">
          <mxGeometry x="565.9371621621622" y="800" width="258.62567567567567" height="52.5" as="geometry" />
        </mxCell>
        <mxCell id="gWARGwKJzGfemJkTMFmE-63" value="Proof of Space" style="rounded=1;whiteSpace=wrap;html=1;fontStyle=1;fillColor=none;fontFamily=Courier New;strokeWidth=2;" vertex="1" parent="1">
          <mxGeometry x="560" y="852.5" width="96.12" height="67.5" as="geometry" />
        </mxCell>
        <mxCell id="gWARGwKJzGfemJkTMFmE-64" value="&lt;font face=&quot;Courier New&quot;&gt;Data retrieval protocol adapter&lt;br&gt;&lt;/font&gt;" style="rounded=1;whiteSpace=wrap;html=1;fontStyle=1;fillColor=none;strokeWidth=2;" vertex="1" parent="1">
          <mxGeometry x="736.58" y="852.5" width="96.12" height="67.5" as="geometry" />
        </mxCell>
        <mxCell id="gWARGwKJzGfemJkTMFmE-39" value="" style="rounded=1;whiteSpace=wrap;html=1;fillColor=none;container=0;strokeWidth=2;" vertex="1" parent="1">
          <mxGeometry x="79.99999999999999" y="900" width="297.96" height="140" as="geometry" />
        </mxCell>
        <mxCell id="gWARGwKJzGfemJkTMFmE-42" value="&#xa;&lt;font face=&quot;Courier New&quot;&gt;Fair Math VM&lt;/font&gt;&#xa;&#xa;" style="text;html=1;align=center;verticalAlign=middle;whiteSpace=wrap;rounded=0;fontStyle=1;container=0;strokeWidth=2;" vertex="1" parent="1">
          <mxGeometry x="112.05999999999999" y="910" width="110" height="30" as="geometry" />
        </mxCell>
        <mxCell id="gWARGwKJzGfemJkTMFmE-43" value="&lt;font face=&quot;Courier New&quot;&gt;Fair Math SDK&lt;br&gt;&lt;/font&gt;" style="rounded=1;whiteSpace=wrap;html=1;container=0;fillColor=none;strokeWidth=2;" vertex="1" parent="1">
          <mxGeometry x="257.96" y="970" width="105.9" height="20" as="geometry" />
        </mxCell>
        <mxCell id="gWARGwKJzGfemJkTMFmE-44" value="Data retrieval protocol" style="rounded=1;whiteSpace=wrap;html=1;fontFamily=Courier New;container=0;fillColor=none;strokeWidth=2;" vertex="1" parent="1">
          <mxGeometry x="102.05999999999999" y="970" width="105.9" height="50" as="geometry" />
        </mxCell>
        <mxCell id="gWARGwKJzGfemJkTMFmE-46" value="&lt;font face=&quot;Courier New&quot;&gt;MPC adaptor&lt;/font&gt;&lt;b&gt;&lt;br&gt;&lt;/b&gt;" style="rounded=1;whiteSpace=wrap;html=1;container=0;fillColor=none;strokeWidth=2;" vertex="1" parent="1">
          <mxGeometry x="102.05999999999999" y="940" width="105.9" height="20" as="geometry" />
        </mxCell>
        <mxCell id="gWARGwKJzGfemJkTMFmE-47" value="&lt;font face=&quot;Courier New&quot;&gt;Key management&lt;br&gt;&lt;/font&gt;" style="rounded=1;whiteSpace=wrap;html=1;container=0;fillColor=none;strokeWidth=2;" vertex="1" parent="1">
          <mxGeometry x="257.96" y="940" width="105.9" height="20" as="geometry" />
        </mxCell>
        <mxCell id="gWARGwKJzGfemJkTMFmE-48" value="&lt;font face=&quot;Courier New&quot;&gt;EVM adaptor&lt;br&gt;&lt;/font&gt;" style="rounded=1;whiteSpace=wrap;html=1;container=0;fillColor=none;strokeWidth=2;" vertex="1" parent="1">
          <mxGeometry x="257.96" y="1000" width="105.9" height="20" as="geometry" />
        </mxCell>
      </root>
    </mxGraphModel>
  </diagram>
</mxfile>
